<svg width="1449" height="1034" viewBox="0 0 1449 1034" fill="none" xmlns="http://www.w3.org/2000/svg">
<path d="M712.25 147.818L727.638 161.674L745.57 151.32L737.148 170.237L752.536 184.092L731.943 181.928L723.521 200.844L719.216 180.59L698.623 178.426L716.555 168.072L712.25 147.818Z" fill="#FFD067"/>
<path d="M272.682 882.25L288.07 896.105L306.002 885.752L297.58 904.668L312.968 918.524L292.375 916.359L283.953 935.276L279.648 915.022L259.055 912.857L276.987 902.504L272.682 882.25Z" fill="#FFD067"/>
<path d="M819.682 793.25L835.07 807.105L853.002 796.752L844.58 815.668L859.968 829.524L839.375 827.359L830.953 846.276L826.648 826.022L806.055 823.857L823.987 813.504L819.682 793.25Z" fill="#FFD067"/>
<path d="M86.6817 70.25L102.07 84.1053L120.002 73.7521L111.58 92.6684L126.968 106.524L106.375 104.359L97.9527 123.276L93.6475 103.022L73.0545 100.857L90.9868 90.504L86.6817 70.25Z" fill="#FFCE8E"/>
<path d="M346.682 237.25L362.07 251.105L380.002 240.752L371.58 259.668L386.968 273.524L366.375 271.359L357.953 290.276L353.648 270.022L333.055 267.857L350.987 257.504L346.682 237.25Z" fill="#FFCE8E"/>
<path d="M453.682 159.25L469.07 173.105L487.002 162.752L478.58 181.668L493.968 195.524L473.375 193.359L464.953 212.276L460.648 192.022L440.055 189.857L457.987 179.504L453.682 159.25Z" fill="#FF75B7"/>
<path d="M916.682 120.25L932.07 134.105L950.002 123.752L941.58 142.668L956.968 156.524L936.375 154.359L927.953 173.276L923.648 153.022L903.055 150.857L920.987 140.504L916.682 120.25Z" fill="#FF75B7"/>
<path d="M755.682 382.25L771.07 396.105L789.002 385.752L780.58 404.668L795.968 418.524L775.375 416.359L766.953 435.276L762.648 415.022L742.055 412.857L759.987 402.504L755.682 382.25Z" fill="#FF75B7"/>
<path d="M428.682 661.25L444.07 675.105L462.002 664.752L453.58 683.668L468.968 697.524L448.375 695.359L439.953 714.276L435.648 694.022L415.055 691.857L432.987 681.504L428.682 661.25Z" fill="#FF75B7"/>
<path d="M34.6817 517.25L50.0696 531.105L68.0019 520.752L59.5799 539.668L74.9678 553.524L54.3747 551.359L45.9527 570.276L41.6475 550.022L21.0545 547.857L38.9868 537.504L34.6817 517.25Z" fill="#FF75B7"/>
<path d="M297.682 548.25L313.07 562.105L331.002 551.752L322.58 570.668L337.968 584.524L317.375 582.359L308.953 601.276L304.648 581.022L284.055 578.857L301.987 568.504L297.682 548.25Z" fill="#FF75B7"/>
<path d="M604.682 598.25L620.07 612.105L638.002 601.752L629.58 620.668L644.968 634.524L624.375 632.359L615.953 651.276L611.648 631.022L591.055 628.857L608.987 618.504L604.682 598.25Z" fill="#FF75B7"/>
<path d="M677.682 497.25L693.07 511.105L711.002 500.752L702.58 519.668L717.968 533.524L697.375 531.359L688.953 550.276L684.648 530.022L664.055 527.857L681.987 517.504L677.682 497.25Z" fill="#FF75B7"/>
<path d="M211.879 800.178L223.025 810.214L236.015 802.714L229.914 816.417L241.061 826.453L226.144 824.886L220.043 838.588L216.925 823.917L202.008 822.349L214.997 814.849L211.879 800.178Z" fill="#FF75B7"/>
<path d="M443.682 803.25L459.07 817.105L477.002 806.752L468.58 825.668L483.968 839.524L463.375 837.359L454.953 856.276L450.648 836.022L430.055 833.857L447.987 823.504L443.682 803.25Z" fill="#FF75B7"/>
<path d="M580.682 53.25L596.07 67.1054L614.002 56.7521L605.58 75.6684L620.968 89.5237L600.375 87.3593L591.953 106.276L587.648 86.0217L567.055 83.8572L584.987 73.504L580.682 53.25Z" fill="#FF75B7"/>
<path d="M641.702 213.28L652.739 223.217L665.6 215.791L659.56 229.359L670.596 239.296L655.826 237.744L649.786 251.311L646.698 236.784L631.928 235.232L644.79 227.806L641.702 213.28Z" fill="#FF75B7"/>
<path d="M1092.7 77.2204L1103.74 87.1577L1116.6 79.7322L1110.56 93.2992L1121.6 103.237L1106.83 101.684L1100.79 115.251L1097.7 100.725L1082.93 99.1724L1095.79 91.7469L1092.7 77.2204Z" fill="#FF75B7"/>
<path d="M1223.7 270.22L1234.74 280.158L1247.6 272.732L1241.56 286.299L1252.6 296.237L1237.83 294.684L1231.79 308.251L1228.7 293.725L1213.93 292.172L1226.79 284.747L1223.7 270.22Z" fill="#FF75B7"/>
<path d="M987.702 407.22L998.739 417.158L1011.6 409.732L1005.56 423.299L1016.6 433.236L1001.83 431.684L995.786 445.251L992.698 430.725L977.928 429.172L990.79 421.747L987.702 407.22Z" fill="#FF75B7"/>
<path d="M1323.7 603.22L1334.74 613.158L1347.6 605.732L1341.56 619.299L1352.6 629.236L1337.83 627.684L1331.79 641.251L1328.7 626.725L1313.93 625.172L1326.79 617.747L1323.7 603.22Z" fill="#FF75B7"/>
<path d="M677.682 980.613L693.07 966.758L711.002 977.111L702.58 958.195L717.968 944.34L697.375 946.504L688.953 927.588L684.648 947.842L664.055 950.006L681.987 960.359L677.682 980.613Z" fill="#FF75B7"/>
<path d="M99.6817 1019.61L115.07 1005.76L133.002 1016.11L124.58 997.195L139.968 983.34L119.375 985.504L110.953 966.588L106.648 986.842L86.0545 989.006L103.987 999.359L99.6817 1019.61Z" fill="#FFEDB6"/>
<path d="M36.6817 914.613L52.0696 900.758L70.0019 911.111L61.5799 892.195L76.9678 878.34L56.3747 880.504L47.9527 861.588L43.6475 881.842L23.0545 884.006L40.9868 894.359L36.6817 914.613Z" fill="#FFEDB6"/>
<path d="M379.682 994.613L395.07 980.758L413.002 991.111L404.58 972.195L419.968 958.34L399.375 960.504L390.953 941.588L386.648 961.842L366.055 964.006L383.987 974.359L379.682 994.613Z" fill="#FFEDB6"/>
<path d="M218.682 673.613L234.07 659.758L252.002 670.111L243.58 651.195L258.968 637.34L238.375 639.504L229.953 620.588L225.648 640.842L205.055 643.006L222.987 653.359L218.682 673.613Z" fill="#FFEDB6"/>
<path d="M614.682 860.613L630.07 846.758L648.002 857.111L639.58 838.195L654.968 824.34L634.375 826.504L625.953 807.588L621.648 827.842L601.055 830.006L618.987 840.359L614.682 860.613Z" fill="#FFEDB6"/>
<path d="M609.682 767.613L625.07 753.758L643.002 764.111L634.58 745.195L649.968 731.34L629.375 733.504L620.953 714.588L616.648 734.842L596.055 737.006L613.987 747.359L609.682 767.613Z" fill="#FFEDB6"/>
<path d="M722.682 673.613L738.07 659.758L756.002 670.111L747.58 651.195L762.968 637.34L742.375 639.504L733.953 620.588L729.648 640.842L709.055 643.006L726.987 653.359L722.682 673.613Z" fill="#FFEDB6"/>
<path d="M86.6817 742.613L102.07 728.758L120.002 739.111L111.58 720.195L126.968 706.34L106.375 708.504L97.9527 689.588L93.6475 709.842L73.0545 712.006L90.9868 722.359L86.6817 742.613Z" fill="#FFEDB6"/>
<path d="M76.6817 258.614L92.0696 244.758L110.002 255.111L101.58 236.195L116.968 222.34L96.3747 224.504L87.9527 205.588L83.6475 225.842L63.0545 228.006L80.9868 238.36L76.6817 258.614Z" fill="#FFEDB6"/>
<path d="M24.6817 169.613L40.0696 155.758L58.0019 166.111L49.5799 147.195L64.9678 133.34L44.3747 135.504L35.9527 116.588L31.6475 136.842L11.0545 139.006L28.9868 149.359L24.6817 169.613Z" fill="#FFEDB6"/>
<path d="M340.682 63.6135L356.07 49.7581L374.002 60.1114L365.58 41.1951L380.968 27.3397L360.375 29.5042L351.953 10.5879L347.648 30.8418L327.055 33.0063L344.987 43.3595L340.682 63.6135Z" fill="#FFEDB6"/>
<path d="M1373.68 537.613L1389.07 523.758L1407 534.111L1398.58 515.195L1413.97 501.34L1393.37 503.504L1384.95 484.588L1380.65 504.842L1360.05 507.006L1377.99 517.359L1373.68 537.613Z" fill="#FFEDB6"/>
<path d="M1395.68 767.613L1411.07 753.758L1429 764.111L1420.58 745.195L1435.97 731.34L1415.37 733.504L1406.95 714.588L1402.65 734.842L1382.05 737.006L1399.99 747.359L1395.68 767.613Z" fill="#FFEDB6"/>
<path d="M1106.68 761.613L1122.07 747.758L1140 758.111L1131.58 739.195L1146.97 725.34L1126.37 727.504L1117.95 708.588L1113.65 728.842L1093.05 731.006L1110.99 741.359L1106.68 761.613Z" fill="#FFEDB6"/>
<path d="M983.682 517.613L999.07 503.758L1017 514.111L1008.58 495.195L1023.97 481.34L1003.37 483.504L994.953 464.588L990.648 484.842L970.055 487.006L987.987 497.359L983.682 517.613Z" fill="#FFEDB6"/>
<path d="M1370.68 91.6135L1386.07 77.7581L1404 88.1114L1395.58 69.1951L1410.97 55.3397L1390.37 57.5042L1381.95 38.5879L1377.65 58.8418L1357.05 61.0063L1374.99 71.3595L1370.68 91.6135Z" fill="#FFD067"/>
<path d="M1378.24 422.852L1388.36 413.737L1400.16 420.548L1394.62 408.103L1404.74 398.987L1391.19 400.411L1385.65 387.966L1382.82 401.291L1369.27 402.715L1381.07 409.527L1378.24 422.852Z" fill="#FF75B7"/>
<path d="M1385.24 975.852L1395.36 966.737L1407.16 973.548L1401.62 961.103L1411.74 951.987L1398.19 953.411L1392.65 940.966L1389.82 954.291L1376.27 955.715L1388.07 962.527L1385.24 975.852Z" fill="#FF75B7"/>
<path d="M213.239 213.852L223.362 204.737L235.16 211.548L229.619 199.103L239.743 189.987L226.195 191.411L220.654 178.966L217.821 192.291L204.273 193.715L216.071 200.527L213.239 213.852Z" fill="#FF75B7"/>
</svg>
